<?xml version="1.0" encoding="iso-8859-1"?>
<!-- Generator: Adobe Illustrator 21.0.0, SVG Export Plug-In . SVG Version: 6.00 Build 0)  -->
<svg version="1.1" id="Layer_1" xmlns="http://www.w3.org/2000/svg" xmlns:xlink="http://www.w3.org/1999/xlink" x="0px" y="0px"
	 width="595.28px" height="595.28px" viewBox="0 0 595.28 595.28" enable-background="new 0 0 595.28 595.28" xml:space="preserve">
<g>
	<path fill="#F68F8D" d="M461.884,99.816c2.281-6.374,5.319-12.659,10.204-17.346s11.903-7.558,18.519-6.124
		c6.71,1.454,11.847,6.952,15.286,12.895c5.795,10.014,7.65,23.47,0.748,32.755c9.493-3.009,19.52-6.051,29.255-3.95
		s18.687,11.356,16.705,21.116c-2.301,11.332-16.107,15.403-27.516,17.292c12.627,4.798,22.131,16.969,23.726,30.382
		c0.311,2.616,0.316,5.39-0.883,7.736c-1.663,3.254-5.249,4.997-8.678,6.261c-8.238,3.037-17.345,4.599-25.815,2.287
		c-8.47-2.313-16.067-9.156-17.357-17.841c-9.485,6.855-19.997,12.286-31.077,16.053c-8.31,2.826-17.913,4.593-25.518,0.211
		c-6.203-3.575-9.824-11.159-8.703-18.23s6.908-13.164,13.912-14.647c-6.214-6.364-17.056-4.71-24.65-9.341
		c-8.712-5.313-10.609-16.924-11.633-27.076c-0.712-7.055-1.094-15.12,3.859-20.195c5.242-5.371,14.088-4.787,21.172-2.31
		c4.618,1.615,15.174,10.771,19.284,10.233C459.277,119.119,460.123,104.736,461.884,99.816z"/>
	<path fill="#F68F8D" d="M385.39,159.125c12.399,5.498,17.352,23.174,9.614,34.313c7.575-8.357,21.563-10.469,30.637-3.771
		c9.075,6.698,10.773,21.781,2.659,29.616c-7.181,6.933-18.559,6.772-28.356,4.86c10.451,4.915,12.547,18.74,12.197,30.283
		c-0.135,4.459-0.46,9.054-2.448,13.048c-1.987,3.994-6.032,7.275-10.489,7.066c-4.539-0.213-8.119-3.769-11.219-7.091
		c-5.05-5.413-10.198-10.972-13.125-17.772c0.036,12.526-15.303,22.258-26.62,16.891c-11.318-5.368-13.486-23.404-3.764-31.301
		c-6.342,0.316-12.821,0.618-18.925-1.134c-6.104-1.752-11.874-5.961-13.772-12.021c-8.34-26.641,31.278-20.896,38.705-34.976
		c4.084-7.742,2.295-16.037,9.337-22.801C366.391,158.027,376.891,155.356,385.39,159.125z"/>
	<path fill="#F68F8D" d="M479.174,273.875c4.529-3.389,9.781-6.217,15.436-6.375c6.786-0.19,13.511,3.866,16.509,9.957
		c2.998,6.091,2.111,13.894-2.179,19.156c10.558-6.993,24.323-10.039,36.155-5.526c11.833,4.512,20.487,17.702,17.583,30.028
		c-2.904,12.326-19.025,20.207-29.569,13.193c7.815,8.117,15.584,16.846,18.997,27.585c3.414,10.738,1.317,24.02-7.779,30.67
		c-7.574,5.536-17.912,5.277-27.107,3.414c-8.042-1.629-16.138-4.46-22.081-10.118c-5.943-5.658-9.249-14.655-6.385-22.345
		c-7.963,14.449-22.953,24.806-39.285,27.142c-2.349,0.336-4.828,0.5-7.018-0.414c-1.937-0.809-3.444-2.379-4.804-3.977
		c-6.648-7.813-11.271-18.825-7.308-28.287c2.512-5.998,7.944-10.167,13.016-14.236c1.219-0.978,2.492-2.055,2.949-3.55
		c1.056-3.462-2.813-6.48-6.351-7.245s-7.554-0.629-10.277-3.014c-2.402-2.104-3.03-5.539-3.431-8.706
		c-1.309-10.322-0.027-23.564,9.77-27.071c5.453-1.951,10.024,0.36,14.826,2.677c7.384,3.563,4.744,5.109,9.907-0.55
		C467.479,288.903,470.668,280.24,479.174,273.875z"/>
	<path fill="#F68F8D" d="M505.377,398.826c4.135,1.552,7.349,5.018,9.351,8.955c2.261,4.447,2.895,10.403-0.548,14.013
		c3.305-5.168,8.159-9.332,13.77-11.811c2.608-1.152,5.438-1.955,8.284-1.772c7.06,0.453,12.698,7.462,12.599,14.536
		s-5.169,13.531-11.662,16.341c-6.493,2.81-14.091,2.317-20.693-0.227c1.259,4.327,2.531,8.755,2.297,13.255
		c-0.234,4.501-2.259,9.168-6.183,11.384c-4.561,2.574-10.702,1.075-14.362-2.672s-5.083-9.252-4.85-14.484
		c-4.753,1.57-9.041,4.41-13.884,5.677c-4.843,1.266-10.843,0.427-13.478-3.829c-2.493-4.027-0.863-9.567,2.458-12.943
		c3.321-3.376,7.928-5.098,12.377-6.721c-4.462-0.953-9.026-1.947-12.899-4.358c-3.874-2.411-6.987-6.562-6.876-11.124
		c0.156-6.421,6.749-11.221,13.163-11.553c5.497-0.285,10.335,3.234,15.578,1.856C495.982,401.73,497.724,395.955,505.377,398.826z"
		/>
	<path fill="#F68F8D" d="M338.618,409.855c7.332-0.996,14.666,3.49,18.585,9.766c3.919,6.276,4.88,14.001,4.427,21.386
		c3.823-5.805,11.07-8.775,18.019-8.614c6.949,0.161,13.593,3.092,19.32,7.031c5.907,4.062,11.467,10.381,10.523,17.488
		c-0.884,6.65-7.261,11.316-13.717,13.141s-13.314,1.619-19.884,2.977c9.992,4.376,18.119,12.843,22.081,23.006
		c1.519,3.896,2.443,8.234,1.29,12.254c-1.819,6.337-8.222,10.196-14.452,12.352c-8.196,2.836-17.544,3.735-25.347-0.049
		c-7.803-3.784-13.173-13.267-10.235-21.427c-5.844,10.138-14.372,18.714-24.478,24.614c-8.923,5.21-22.018,7.523-28.277-0.699
		c-6.212-8.161-0.778-19.827,5.224-28.145c3.485-4.83,7.579-9.82,13.344-11.314c-6.545-0.332-12.892,2.071-19.39,2.92
		s-14.112-0.422-17.615-5.96c-2.815-4.451-2.03-10.447,0.578-15.022c2.608-4.575,6.751-8.038,10.805-11.398
		c5.43-4.5,10.771-8.497,17.298-11.238c4.209-1.768,9.192-2.033,12.218-5.841C326.38,427.709,322.23,412.081,338.618,409.855z"/>
	<path fill="#F68F8D" d="M317.335,375.821c1.535,6.711,1.551,14.189-2.148,19.995c-3.7,5.806-11.974,8.975-17.839,5.368
		c3.804,3.611,4.947,9.231,4.95,14.476c0.004,7.437-2.172,15.298-7.777,20.186c-5.605,4.888-15.136,5.553-20.135,0.047
		c-4.529-4.989-3.978-12.615-3.15-19.303c-0.331,9.766-7.628,19.03-17.169,21.14c-9.541,2.11-20.338-3.556-23.562-12.78
		c-3.224-9.224,2.063-20.686,11.332-23.777c-5.853,4.004-13.981,4.864-20.135,1.34s-9.541-11.656-6.905-18.24
		c2.52-6.295,9.349-9.74,15.93-11.372c8.563-2.124,17.49-1.5,24.655,3.934c-0.853-6.106-6.992-19.431,1.868-23.28
		c5.087-2.21,9.239,2.751,12.814,5.758C284.711,371.63,297.833,376.347,317.335,375.821z"/>
	<path fill="#4E3B31" d="M174.83,271.323c25.476-35.438,62.315-66.948,105.899-69.267c-29.677,27.222-60.094,53.638-91.204,79.21
		c27.749,0.235,55.498,0.469,83.247,0.704c11.206,0.095,22.617,0.221,33.278,3.675c9.292,3.01,17.624,8.43,26.764,11.876
		c26.932,10.156,58.328,1.646,81.077-15.989c22.748-17.635,38.048-43.173,49.925-69.392c3.52,10.974,4.57,22.732,3.052,34.157
		c27.568-17.64,62.465-23.403,94.24-15.562c-50.937,23.462-101.875,46.923-152.812,70.385c-6.404,2.949-14.054,9.001-10.977,15.344
		c2.103,4.336,7.795,5.046,12.378,6.537c7.43,2.418,13.595,8.436,16.192,15.805c-39.296-0.233-78.565-4.861-116.838-13.769
		c8.68,15.782,21.177,29.446,36.124,39.496c13.15,8.842,28.068,14.878,40.892,24.186c10.722,7.782,19.839,17.752,31.237,24.503
		c17.101,10.13,38.665,12.63,53.242,26.141c7.916,7.338,13.062,17.596,14.21,28.329c0.169,1.584,0.195,3.363-0.863,4.554
		c-0.808,0.909-2.068,1.254-3.27,1.44c-8.163,1.267-16.12-2.741-23.411-6.626c-32.85-17.503-65.701-35.006-98.551-52.509
		c-7.178-3.824-14.461-7.724-20.288-13.398c-8.78-8.548-13.588-20.463-22.035-29.341c-7.054-7.414-16.521-12.58-22.118-21.148
		c-6.94-10.627-7.015-25.175-15.78-34.355c-11.255-11.788-30.379-8.932-46.355-5.711c-58.181,11.73-117.793,16.348-177.086,13.72
		c-4.767-0.211-9.745-0.531-13.852-2.961c-9.221-5.457-9.878-18.491-8.112-29.059c1.701-10.173-1.735-28.293,9.599-29.211
		c13.969-1.132,30.177,3.289,44.594,3.137c15.088-0.16,30.172-1.026,45.263-0.652C136.62,265.674,174.596,271.649,174.83,271.323z"
		/>
	<path fill="#BED665" d="M207.873,238.063c2.079-4.763,3.254-9.918,3.446-15.111c0.269-7.27-0.797-27.069-7.69-30.555
		c-3.979,6.869-4.762,16.035-3.949,23.84C200.04,219.679,208.309,237.065,207.873,238.063z"/>
	<path fill="#BED665" d="M291.425,276.404c-0.882,2.027-1.502,4.446-0.432,6.381c0.584,1.056,1.588,1.8,2.467,2.628
		c2.724,2.568,4.34,6.086,6.741,8.959c4.536,5.427,11.998,8.245,18.989,7.17c-4.138,0.636-4.246-35.598-6.124-37.93
		C306.537,255.509,294.135,270.178,291.425,276.404z"/>
	<path fill="#BED665" d="M393.733,367.755c9.038-4.4,5.971-42.31-9.372-31.37C373.556,344.089,377.71,375.556,393.733,367.755z"/>
	<g>
		<path fill="#231F20" d="M285.363,445.44c-5.834,0-10.556-1.956-13.428-5.603c-1.518-1.926-2.266-5.004-2.574-8.172
			c-8.941,7.539-23.774,15.023-32.789,9.361c-6.657-4.181-8.262-16.808-5.967-26.6c0.759-3.237,1.9-5.958,3.351-8.074
			c-4.889-1.288-9.495-3.111-10.694-4.269c-6.795-6.567-3.17-19.798,2.311-26.021c3.958-4.492,13.016-10.595,19.879-9.452
			c2.796,0.468,5.173,3.169,7.27,5.552c0.32,0.364,0.706,0.803,1.083,1.213c0.417-2.434-0.046-4.823-0.531-7.321
			c-1.123-5.787-2.396-12.347,7.174-19.17c3.561-2.538,6.675-3.345,9.515-2.466c4.957,1.532,7.19,7.619,9.555,14.063
			c2.168,5.907,4.409,12.016,8.342,13.471l0,0c4.904,1.814,10.035,1.96,14.997,2.101c8.729,0.247,17.755,0.504,19.798,11.916
			c2.688,15.016-10.143,19.057-17.036,21.229c-1.438,0.453-3.311,1.042-4.222,1.521c0.497,0.406,1.361,0.93,1.938,1.278
			c1.989,1.204,4.244,2.57,5.021,4.981c2.551,7.928,0.891,19.511-6.302,25.174c-3.594,2.831-9.246,4.831-14.751,5.219
			C286.642,445.418,285.996,445.44,285.363,445.44z M274.182,426.939c-0.046,3.927,0.459,8.254,1.681,9.805
			c2.87,3.644,8.177,3.841,11.085,3.64c4.49-0.316,9.204-1.949,12.01-4.159c5.411-4.261,6.619-13.55,4.636-19.714
			c-0.204-0.634-1.798-1.599-2.853-2.237c-2.159-1.308-5.772-3.496-4.335-7.275c0.925-2.433,3.77-3.329,7.708-4.569
			c8.799-2.771,15.388-5.678,13.616-15.578c-1.271-7.096-5.771-7.537-15.018-7.799c-5.116-0.146-10.915-0.31-16.59-2.409
			c-6.098-2.255-8.862-9.79-11.301-16.438c-1.842-5.019-3.745-10.207-6.338-11.009c-1.237-0.384-2.963,0.212-5.136,1.76
			c-6.951,4.957-6.203,8.812-5.168,14.146c0.686,3.531,1.462,7.533-0.219,11.955c-0.699,1.841-1.999,2.333-2.711,2.462
			c-2.349,0.425-4.083-1.552-6.283-4.052c-1.234-1.402-3.3-3.749-4.342-3.924c-4.547-0.77-11.972,4.045-15.302,7.825
			c-4.046,4.595-6.98,14.876-2.589,19.12c1.28,1.006,7.013,2.785,11.668,3.763c1.073-0.555,2.222-0.9,3.434-1.022
			c2.711-0.437,4.357-0.256,5.468,0.6c0.677,0.521,1.095,1.268,1.179,2.103c0.146,1.442-0.61,2.749-1.974,3.41
			c-1.406,0.684-4.018,0.64-6.998,0.188c-1.738,1.537-3.169,4.33-4.038,8.039c-2.017,8.606-0.227,18.723,3.757,21.225
			c6.06,3.805,18.983-1.919,27.482-9.4c0.99-0.871,1.834-1.688,2.552-2.447c0.104-1.766,0.291-3.243,0.472-4.145
			c0.507-2.513,1.576-5.635,3.793-6.254c1.111-0.308,2.268,0.036,3.089,0.93c1.393,1.513,2.944,4.996-2.313,11.316
			C274.265,426.841,274.224,426.89,274.182,426.939z"/>
		<path fill="#231F20" d="M480.629,136.222c-0.819,0-1.621-0.396-2.098-1.104c-1.097-1.629-0.188-2.831,2.008-5.735
			c0.666-0.882,2.335-3.046,3.437-4.098c1.825-1.744,3.29-0.991,3.834-0.589c1.889,1.4,0.775,3.605,0.11,4.923l0,0
			c-0.871,1.725-2.843,4.848-6.262,6.384C481.327,136.151,480.976,136.222,480.629,136.222z M485.688,128.492h0.01H485.688z
			 M483.911,126.367"/>
		<path fill="#231F20" d="M475.216,171.969c-1.141,0-2.171-0.785-2.436-1.944c-0.22-0.962-0.381-1.598-0.496-2.053
			c-0.361-1.43-0.387-1.7-0.297-3.216c0.024-0.418,0.058-0.977,0.091-1.768c0.059-1.379,1.197-2.44,2.603-2.394
			c1.379,0.058,2.451,1.223,2.394,2.603c-0.035,0.83-0.069,1.416-0.096,1.854c-0.052,0.882-0.052,0.882,0.153,1.692
			c0.121,0.48,0.291,1.151,0.523,2.167c0.308,1.346-0.534,2.687-1.881,2.994C475.587,171.949,475.4,171.969,475.216,171.969z"/>
		<path fill="#231F20" d="M503.494,320.661c-0.675,0-1.348-0.271-1.841-0.808c-0.935-1.016-0.869-2.598,0.147-3.532l1.573-1.447
			c0.699-0.642,1.699-0.833,2.582-0.496l1.404,0.534l2.611,0.107c1.38,0.057,2.452,1.221,2.395,2.601
			c-0.058,1.38-1.246,2.439-2.601,2.396l-3.018-0.124c-0.27-0.011-0.535-0.065-0.787-0.162l-0.341-0.129l-0.436,0.4
			C504.705,320.442,504.098,320.661,503.494,320.661z"/>
		<path fill="#231F20" d="M207.504,240.407c-2.458,0-4.938-2.61-7.641-5.748c-0.3-0.348-0.53-0.623-0.669-0.761
			c-10.975-10.098-8.563-19.453-3.958-31.565c0.725-1.906,3.006-5.71,4.898-8.634c4.394-6.786,5.199-6.917,6.22-7.082
			c0.878-0.142,1.855,0.222,2.42,0.915c1.04,1.276,0.452,2.821,0.137,3.651c-1.254,3.298,0.762,10.689,2.71,17.836
			c3.4,12.475,7.255,26.612-2.674,31.071C208.466,240.306,207.985,240.407,207.504,240.407z M203.777,197.289
			c-1.726,2.718-3.389,5.563-3.867,6.82c-4.633,12.184-5.778,18.337,2.689,26.129c0.25,0.229,0.518,0.537,1.052,1.157
			c1.78,2.067,3.056,3.356,3.801,3.845c5.267-3.185,2.126-14.704-0.655-24.905C205.49,205.54,204.281,201.108,203.777,197.289z"/>
		<path fill="#231F20" d="M485.553,308.73c-0.953,0-1.864-0.549-2.281-1.476l-1.108-2.465c-0.271-0.605-0.292-1.294-0.057-1.914
			l2.376-6.248c0.138-0.363,0.358-0.689,0.645-0.952l3.145-2.893c1.018-0.937,2.597-0.869,3.532,0.147
			c0.935,1.016,0.869,2.598-0.147,3.532l-2.71,2.493l-1.798,4.729l0.684,1.52c0.566,1.26,0.004,2.739-1.255,3.306
			C486.244,308.659,485.895,308.73,485.553,308.73z"/>
		<path fill="#231F20" d="M311.301,532.874c-0.443,0-0.884-0.015-1.319-0.045c-5.254-0.364-12.056-3.157-14.624-14.393
			c-1.493-6.536,1.476-18.307,6.438-25.974c-3.431-0.055-6.035-0.307-6.099-0.32c-9.095-2.048-15.58-18.293-16.362-26.065
			c-0.441-4.396,1.602-9.132,5.908-13.698c6.462-6.853,16.636-11.769,23.613-11.509c1.306,0.055,3.46,0.73,7.155,1.92
			c2.37,0.764,6.205,1.998,7.651,2.166c2.461-2.035,2.811-7.326,3.149-12.451c0.322-4.869,0.655-9.904,2.845-13.389
			c5.421-8.634,11.938-9.185,16.453-8.13c11.363,2.663,21.028,17.771,22.576,27.413c1.596,0.062,4.952-0.474,7.753-0.916
			c11.479-1.814,28.83-4.554,34.516,8.11c5.552,12.363,0.779,26.313-12.156,35.537c-1.729,1.233-4.135,2.362-6.754,2.98
			c3.112,2.891,5.413,6.302,6.751,10.09c2.575,7.295,1.449,15.412-3.258,23.474c-2.908,4.98-8.072,8.367-14.541,9.535
			c-8.105,1.463-17.427-0.722-23.2-5.437c-2.116-1.73-7.138-6.201-9.982-11.769C339.581,520.965,323.878,532.874,311.301,532.874z
			 M308.196,492.279c-5.227,5.521-9.343,19.01-7.964,25.044c1.534,6.712,4.836,10.153,10.096,10.518
			c13.269,0.945,33.397-16.867,37.522-27.716c0.923-2.426,2.726-2.075,3.254-1.91c0.844,0.263,2.168,1.078,1.554,3.593
			c-0.924,3.775-0.834,4.884-0.753,5.185c1.553,3.446,4.949,7.553,9.056,10.909c4.631,3.783,12.505,5.587,19.147,4.389
			c3.541-0.64,8.345-2.397,11.111-7.137c3.943-6.753,4.933-13.422,2.861-19.287c-1.819-5.15-5.947-9.487-11.784-12.459
			c-0.383-0.144-0.789-0.302-1.217-0.474c-2.932-1.182-3.72-1.499-4.103-2.777c-0.274-0.912-0.006-1.902,0.691-2.551
			c1.154-1.076,2.46-0.581,3.016-0.368c1.254,0.477,2.457,1.003,3.607,1.576c0.875,0.324,1.691,0.593,2.167,0.672
			c3.209,0.541,7.177-0.813,9.438-2.425c8.681-6.191,15.997-17.171,10.498-29.418c-4.122-9.178-19.198-6.797-29.175-5.221
			c-6.718,1.062-10.033,1.503-12.015-0.024c-0.774-0.598-1.255-1.46-1.353-2.429c0,0,0,0,0-0.001
			c-0.868-8.618-10.362-22.116-18.883-24.113c-4.321-1.013-7.941,0.926-11.078,5.921c-1.518,2.416-1.809,6.811-2.09,11.06
			c-0.438,6.633-0.893,13.49-5.857,16.631c-1.714,1.085-4.208,0.42-11.465-1.916c-2.147-0.691-5.089-1.639-5.834-1.684
			c-5.533-0.228-14.378,4.231-19.765,9.942c-3.236,3.432-4.859,6.9-4.571,9.768c0.733,7.276,6.872,20.424,12.485,21.688
			c1.327,0.235,5.456,0.32,9.358,0.11c0.515-0.423,1.04-0.795,1.573-1.109c0.401-0.237,0.869-0.56,1.369-0.901
			c2.251-1.539,4.581-3.128,6.867-2.485c1.056,0.298,1.896,1.039,2.367,2.089c0.653,1.453,0.464,2.977-0.519,4.181
			C316.236,491.077,312.309,491.938,308.196,492.279z M368.827,439.461c0,0.002,0,0.004,0,0.006v-0.001
			C368.827,439.465,368.827,439.463,368.827,439.461z"/>
		<path fill="#231F20" d="M479.055,159.603c-1.235,0-2.542-0.251-3.884-0.761c-2.567-0.977-3.93-3.058-3.643-5.567
			c0.559-4.881,8.198-11.374,10.453-11.682c1.979-0.271,3.784,0.73,4.829,2.677c1.685,3.134,1.407,9.08-1.684,12.601
			C483.543,158.674,481.431,159.603,479.055,159.603z M476.49,153.954c0.024,0,0.154,0.1,0.458,0.215
			c2.981,1.134,4.202-0.135,4.856-1.188c1.346-2.163,1.184-5.119,0.688-6.209c-2.171,1.433-6.211,5.766-6.004,7.182
			C476.489,153.954,476.49,153.954,476.49,153.954z M482.319,144.07h0.01H482.319z"/>
		<path fill="#231F20" d="M466.316,209.336c-2.669,0.001-5.803-0.396-9.517-1.302c-0.848-0.206-1.77-0.397-2.73-0.598
			c-4.55-0.947-10.213-2.126-13.694-5.907c-8.02-8.718-8.197-22.477-0.414-32.005c0.55-0.672,1.473-1.307,3.193-2.465
			c0.316-0.213,0.729-0.49,1.167-0.793c-0.701-0.088-1.12-0.166-1.488-0.306l-0.711-0.27c-9.372-3.552-26.816-10.164-25.726-22.96
			c0.452-5.311,8.552-32.559,17.375-35.097c6.995-2.013,18.105,3.528,21.447,5.627c1.539,0.966,2.789,2.861,3.991,4.725
			c0.626-2.447,1.006-5.013,1.4-7.682c1.15-7.777,2.455-16.593,10.968-23.296c11.264-8.868,19.888-5.091,24.029-2.05
			c10.258,7.535,14.875,25.664,9.882,38.798c-0.481,1.266-0.454,1.845-0.43,2.007c1.544,1.032,9.561-0.953,14.372-2.146
			c11.919-2.952,25.428-6.298,29.354,2.447c4.406,9.814-2.557,22.722-5.755,27.815c-0.892,1.42-2.916,2.256-7.044,3.863
			c-1.16,0.452-2.772,1.08-4.056,1.66c0.688,0.26,1.426,0.508,1.998,0.7c2.251,0.757,4.579,1.54,6.049,2.893
			c8.299,7.635,8.63,24.973,3.079,33.812c-9.96,15.86-34.462,9.481-48.182,4.266c-4.921-1.871-5.515-4.396-5.779-7.503
			c-0.082-0.957-0.166-1.947-0.5-3.107c-0.064-0.222-0.107-0.449-0.136-0.681c-2.42,2.07-3.875,4.843-5.393,7.732
			C480.123,203.128,476.863,209.336,466.316,209.336z M444.488,161.242c0.257,0.046,0.892,0.117,1.365,0.17
			c3.367,0.378,5.801,0.65,6.051,3.104c0.241,2.393-2.107,4.103-5.959,6.693c-0.804,0.541-1.903,1.281-2.168,1.543
			c-6.062,7.426-5.965,18.607,0.277,25.393c2.393,2.6,6.983,3.555,11.033,4.398c1.02,0.212,1.997,0.416,2.896,0.635
			c14.597,3.555,17.141-1.284,20.658-7.984c2.271-4.325,4.844-9.229,10.905-11.95c1.008-0.453,2.102-0.357,2.929,0.255
			c1.463,1.08,1.239,2.867,1.061,4.303c-0.051,0.409-0.135,1.082-0.115,1.349c0.453,1.602,0.566,2.929,0.657,3.998
			c0.178,2.084,0.2,2.352,2.575,3.254c9.893,3.76,33.805,11.069,42.17-2.251c4.418-7.035,4.13-21.621-2.23-27.473
			c-0.688-0.632-2.667-1.298-4.258-1.833c-2.671-0.898-5.193-1.747-6.458-3.523c-0.572-0.802-0.74-1.8-0.461-2.736
			c0.674-2.258,3.466-3.438,8.757-5.499c1.624-0.633,4.038-1.572,4.75-2.064c2.285-3.682,8.75-15.229,5.303-22.906
			c-2.219-4.938-14.572-1.876-23.592,0.357c-9.461,2.343-16.296,4.037-19.352,0.587c-1.467-1.654-1.623-4.036-0.467-7.079
			l2.337,0.889l-2.337-0.889c4.123-10.845,0.154-26.878-8.168-32.99c-5.247-3.854-11.464-3.182-17.976,1.947
			c-6.951,5.474-8.002,12.578-9.115,20.101c-0.581,3.927-1.183,7.986-2.653,11.856c-0.701,1.845-2.096,2.182-2.663,2.241
			c-2.216,0.24-3.501-1.751-5.121-4.266c-0.716-1.109-1.913-2.968-2.559-3.373c-4.493-2.82-13.275-6.239-17.406-5.057
			c-4.691,1.35-13.183,23.751-13.775,30.716c-0.771,9.035,14.957,14.996,22.516,17.86L444.488,161.242z M493.401,189.08
			c0.001,0.004,0.002,0.007,0.003,0.011C493.403,189.086,493.402,189.084,493.401,189.08z M444.587,161.279l0.022,0.009
			C444.601,161.285,444.595,161.282,444.587,161.279z M505.069,125.813h0.01H505.069z"/>
		<path fill="#231F20" d="M512.259,335.232c-0.676,0-1.349-0.271-1.842-0.809l-1.045-1.136l-8.376-3.185
			c-1.29-0.491-1.938-1.935-1.448-3.226c0.491-1.291,1.935-1.938,3.226-1.448l8.93,3.395c0.362,0.139,0.688,0.359,0.951,0.646
			l1.444,1.571c0.935,1.016,0.867,2.598-0.149,3.532C513.47,335.014,512.863,335.232,512.259,335.232z"/>
		<path fill="#231F20" d="M475.24,142.346c-0.296,0-0.596-0.053-0.888-0.164l-1.786-0.679c-0.782-0.297-1.363-0.966-1.55-1.781
			l-0.766-3.356c-0.109-0.48-0.074-0.982,0.101-1.443l1.018-2.679c0.49-1.292,1.939-1.938,3.225-1.449
			c1.291,0.49,1.939,1.934,1.449,3.225l-0.749,1.972l0.3,1.314l0.534,0.203c1.291,0.49,1.939,1.935,1.449,3.225
			C477.198,141.732,476.248,142.346,475.24,142.346z"/>
		<path fill="#231F20" d="M494.817,311.232c-0.296,0-0.597-0.053-0.89-0.165l-1.785-0.68c-1.29-0.49-1.938-1.935-1.447-3.225
			l0.679-1.785c0.192-0.506,0.543-0.935,1.001-1.225l3.846-2.432l2.978-2.739c1.018-0.937,2.597-0.869,3.532,0.147
			c0.935,1.016,0.869,2.598-0.147,3.532l-3.144,2.892c-0.11,0.102-0.229,0.193-0.356,0.273l-2.251,1.424
			c0.485,0.661,0.635,1.547,0.321,2.37C496.774,310.618,495.824,311.232,494.817,311.232z"/>
		<path fill="#231F20" d="M499.648,158.778c-0.675,0-1.348-0.271-1.841-0.808l-1.047-1.138l-2.641-1.004l-2.611-0.108
			c-1.379-0.058-2.451-1.223-2.394-2.603s1.174-2.443,2.603-2.394l3.017,0.126c0.269,0.012,0.533,0.065,0.784,0.161l3.571,1.357
			c0.362,0.138,0.688,0.358,0.951,0.645l1.446,1.572c0.935,1.016,0.869,2.598-0.147,3.532
			C500.859,158.56,500.253,158.778,499.648,158.778z"/>
		<path fill="#231F20" d="M473.229,314.262c-0.676,0-1.349-0.272-1.842-0.809l-1.444-1.572c-0.294-0.319-0.499-0.71-0.596-1.134
			l-0.769-3.356c-0.11-0.481-0.076-0.985,0.101-1.447l0.68-1.785c0.49-1.29,1.937-1.94,3.226-1.446
			c1.29,0.491,1.938,1.936,1.446,3.226l-0.409,1.076l0.451,1.973l0.996,1.084c0.935,1.017,0.867,2.599-0.149,3.532
			C474.439,314.044,473.833,314.262,473.229,314.262z"/>
		<path fill="#231F20" d="M472.957,349.92c-0.78,0-1.55-0.364-2.037-1.049c-0.802-1.124-0.541-2.685,0.584-3.486
			c0.858-0.612,1.351-1.011,1.71-1.301c1.173-0.949,1.663-1.138,3.278-1.265c0.291-0.022,0.659-0.052,1.142-0.1
			c1.386-0.141,2.601,0.864,2.737,2.237c0.138,1.374-0.863,2.6-2.237,2.737c-0.529,0.054-0.933,0.085-1.25,0.11
			c-0.14,0.011-0.255,0.018-0.354,0.026c-0.051,0.041-0.107,0.088-0.173,0.141c-0.386,0.313-0.97,0.784-1.951,1.483
			C473.967,349.77,473.459,349.92,472.957,349.92z"/>
		<path fill="#231F20" d="M519.249,466.483c-0.581,0-1.182-0.048-1.8-0.146c-5.398-0.855-11.398-5.427-13.407-8.995
			c-1.37-2.431-2.426-4.709-3.211-6.934c-2.531,2.126-5.558,4.394-8.743,6.014c-8.831,4.49-14.23,1.579-17.205-1.654
			c-4.505-4.896-4.701-12.917-0.586-23.845c-3.443-1.581-6.665-3.857-7.336-5.048c-4.756-8.448-8.513-15.121,3.117-22.861
			c6.036-4.016,11.352-5.777,15.788-5.254c2.382,0.282,4.188,2.383,5.771,4.436c0.005-0.171,0.009-0.341,0.012-0.511
			c0.043-1.957,0.092-4.175,1.843-5.817c1.433-1.346,3.545-1.882,6.843-1.746c5.115,0.213,13.194,2.632,14.671,15.434
			c2.863-1.59,6.802-2.245,11.272-1.714c7.815,0.931,15.767,5.606,15.91,13.954c0.063,3.629-0.877,6.368-2.791,8.144
			c-2.997,2.778-7.396,2.376-10.615,2.079c2.437,3.012,3.057,3.924,3.29,4.735c2.09,7.259-1.024,21.972-7.195,27.651
			C523.381,465.778,521.46,466.483,519.249,466.483z M505.349,448.17c0.703,2.128,1.701,4.327,3.049,6.717
			c1.233,2.19,5.905,5.889,9.833,6.511c2.16,0.341,2.985-0.423,3.259-0.674c4.313-3.969,7.479-16.226,5.825-22.412
			c-0.441-0.725-2.228-2.916-3.208-4.118c-2.344-2.874-2.767-3.392-2.219-4.823c1.108-2.914,4.411-2.604,7.326-2.335
			c2.412,0.224,5.416,0.504,6.782-0.765c0.827-0.767,1.228-2.244,1.19-4.391c-0.091-5.334-5.843-8.401-11.502-9.075
			c-5.232-0.619-9.691,0.907-10.379,3.557c-0.632,2.437-2.277,2.471-2.951,2.371c-1.493-0.218-2.214-1.331-2.143-3.307
			c0.379-10.528-3.015-16.016-10.086-16.31c-2.637-0.113-3.192,0.375-3.214,0.396c-0.22,0.206-0.248,1.505-0.266,2.281
			c-0.033,1.523-0.075,3.42-0.83,5.407c-0.655,1.724-1.896,2.146-2.578,2.245c-2.116,0.311-3.5-1.492-5.087-3.576
			c-0.726-0.953-2.236-2.938-2.93-3.155c-3.134-0.372-7.428,1.171-12.375,4.462c-7.714,5.134-6.339,7.702-1.626,16.074
			c0.873,0.857,3.688,2.481,6.041,3.505c1.222-1.238,2.715-2.244,4.269-2.032c0.613,0.081,2.636,0.575,2.933,3.533
			c0.203,2.015-0.791,3.621-2.593,4.191c-0.774,0.245-1.74,0.24-2.81,0.061c-0.02,0.032-0.037,0.063-0.054,0.092
			c-3.428,9.059-3.578,15.378-0.445,18.782c1.697,1.844,4.712,3.911,11.259,0.582c4.647-2.364,9.157-6.514,11.851-8.993
			c1.182-1.084,2.504-0.896,3.279-0.407c1.723,1.088,1.151,2.94,0.81,4.048C505.639,447.006,505.398,447.787,505.349,448.17z
			 M505.279,447.954c0,0.001,0.001,0.002,0.001,0.003C505.28,447.956,505.279,447.955,505.279,447.954z M479.044,432.504
			c-0.002,0.007-0.005,0.013-0.007,0.02C479.039,432.517,479.042,432.51,479.044,432.504L479.044,432.504z M471.148,423.176
			L471.148,423.176L471.148,423.176z"/>
		<path fill="#231F20" d="M488.131,336.354c-6.915,0-10.779-5.104-11.028-10.207c-0.243-5,2.988-10.661,10.657-11.276l0,0
			c3.483-0.282,6.428,1.132,8.3,3.975c2.298,3.487,2.491,8.599,0.47,12.43c-1.671,3.166-4.643,5.017-8.154,5.077
			C488.293,336.353,488.212,336.354,488.131,336.354z M488.16,319.855c-4.674,0.375-6.188,3.493-6.063,6.049
			c0.135,2.764,2.079,5.51,6.192,5.448c1.705-0.029,2.989-0.84,3.818-2.41c1.17-2.219,1.074-5.377-0.223-7.346
			C491.025,320.292,489.802,319.718,488.16,319.855L488.16,319.855z"/>
		<path fill="#231F20" d="M477.482,468.268c-2.79,0-7.441-0.884-15.366-2.886c-0.417-0.105-0.702-0.178-0.815-0.203
			c-17.255-3.465-33.792-10.514-49.09-17.614c-32.083-14.895-68.414-33.071-93.521-60.356c-9.241-10.042-15.466-21.952-21.486-33.47
			c-8.603-16.458-16.728-32.003-32.879-42.145c-12.287-7.716-42.226-4.423-58.311-2.653c-2.052,0.226-3.936,0.433-5.605,0.601
			c-10.318,1.039-20.958,2.451-32.223,3.946c-33.499,4.445-68.14,9.044-99.326,4.5c-1.752-0.255-4.503-0.328-7.688-0.414
			c-11.885-0.317-28.16-0.753-32.531-10.487c-1.97-4.387-1.558-12.93-0.866-22.82c0.207-2.967,0.387-5.528,0.332-6.831
			c-0.014-0.346-0.129-1.587-0.25-2.901c-1.329-14.389-1.134-15.345,1.016-16.189c2.528-0.995,5.47-1.203,8.271-0.585l0,0
			c14.489,3.182,27.885,4.475,42.066,5.844c6.002,0.58,12.209,1.179,18.579,1.937c5.923,0.704,11.737,1.634,17.359,2.533
			c14.306,2.288,27.818,4.453,42.322,2.989c5.361-0.539,14.372-8.618,20.334-13.964c2.514-2.254,4.685-4.2,6.443-5.535
			c14.852-11.263,32.42-21.291,55.291-31.562c1.101-0.494,2.221-1.002,3.359-1.518c8.14-3.687,17.365-7.865,25.923-10.114
			c0.531-0.139,5.244-1.3,7.211,0.886c0.787,0.876,0.999,2.081,0.564,3.224c-1.855,4.884-10.886,9.627-19.976,14.066
			c-1.221,0.596-2.24,1.093-2.939,1.465c-14.286,7.595-65.133,41.368-68.714,50.79c-0.104,0.275-0.205,0.634-0.09,0.774
			c0.322,0.394,2.596,2.312,15.713,1.285c8.347-0.65,17.793-2.207,24.689-3.344c3.505-0.577,6.273-1.033,7.845-1.191
			c15.549-1.567,32.858,5.042,49.61,11.431c10.998,4.194,21.388,8.156,30.885,9.746c47.736,7.996,89.389-2.883,120.444-31.458
			c4.254-3.914,9.762-15.424,15.088-26.555c8.317-17.382,13.703-28.118,19.367-29.748c0.842-0.241,1.835-0.008,2.476,0.581
			c1.355,1.245,1.136,2.359-0.297,9.612c-0.97,4.905-3.91,19.792-2.035,22.09c0.006,0.004,0.012,0.008,0.019,0.012
			c0.433-0.385,1.041-0.889,1.916-1.404c18.78-11.073,35.581-16.276,54.475-16.871c5.755-0.182,16.801,0.05,26.215,3.63
			c0.403,0.153,1.055,0.331,1.744,0.519c2.664,0.725,5.181,1.409,5.869,3.559c0.338,1.054,0.098,2.188-0.657,3.111
			c-0.755,0.925-0.769,0.942-19.402,5.768c-12.537,3.246-29.706,7.691-32.881,9.117c-10.744,4.825-19.931,11.11-29.655,17.766
			c-5.825,3.985-11.849,8.106-18.192,11.846c-5.837,3.442-12.003,6.737-18.532,10.227c-14.964,7.997-30.416,16.255-42.192,26.604
			c4.551,4.226,21.689,15.417,24.89,16.725c0.086,0.014,0.18,0.022,0.273,0.033c0.783,0.094,2.094,0.25,2.845,1.489
			c0.438,0.724,0.514,1.604,0.207,2.415c-1.081,2.836-4.402,3.142-23.047-0.447c-1.109-0.214-1.905-0.369-2.222-0.415
			c-22.516-3.279-46.526-7.029-70.767-13.57l-0.951-0.264c-2.827-0.79-11.431-3.195-14.29-1.28
			c-0.315,0.212-0.651,0.537-0.748,1.349c-1.326,11.163,12.781,25.764,26.427,35.705c12.09,8.806,23.263,18.482,34.067,27.841
			c19.361,16.769,37.648,32.607,60.807,43.907c10.296,5.025,19.296,12.102,28.001,18.945c4.378,3.442,8.905,7.002,13.449,10.166
			l0.347,0.234c2.15,1.441,6.153,4.124,4.899,7.421C481.064,467.502,480.079,468.268,477.482,468.268z M237.599,301.688
			c11.486,0,22.47,1.33,29.384,5.672c17.298,10.861,26.12,27.74,34.652,44.063c5.87,11.229,11.939,22.843,20.734,32.4
			c24.485,26.61,60.3,44.514,91.946,59.206c15.018,6.971,31.225,13.886,47.987,17.251c0.112,0.022,0.479,0.113,1.037,0.254
			c4.992,1.261,8.312,1.957,10.516,2.333l-0.387-0.263c-4.66-3.245-9.246-6.851-13.681-10.337
			c-8.498-6.682-17.286-13.591-27.104-18.382c-23.745-11.587-43.135-28.381-61.887-44.621c-10.727-9.291-21.818-18.897-33.737-27.58
			c-7.177-5.229-30.438-23.59-28.448-40.336c0.249-2.098,1.263-3.796,2.932-4.913c4.192-2.807,11.33-1.36,18.417,0.619l0.908,0.252
			c23.975,6.47,47.818,10.191,70.185,13.45c0.349,0.051,1.226,0.218,2.446,0.452c3.786,0.729,6.825,1.268,9.26,1.657
			c-2.425-1.524-5.058-3.244-7.443-4.86c-13.112-8.884-13.463-10.706-13.673-11.795c-0.189-0.983,0.125-1.964,0.842-2.623
			c12.415-11.424,28.847-20.205,44.737-28.697c6.481-3.463,12.603-6.734,18.35-10.123c6.199-3.654,12.151-7.728,17.907-11.666
			c9.479-6.485,19.28-13.191,30.431-18.199c3.299-1.481,16.613-4.979,33.676-9.397c4.498-1.164,9.082-2.352,12.458-3.255
			c-0.187-0.061-0.365-0.122-0.534-0.187c-6.283-2.39-15.134-3.595-24.28-3.306c-18.01,0.566-34.076,5.557-52.094,16.18
			c-0.612,0.361-0.982,0.696-1.34,1.021c-1.871,1.695-3.455,1.766-5.849,0.266c-4.191-2.634-3.39-10.888-0.155-27.259
			c0.024-0.127,0.05-0.255,0.075-0.383c-3.773,5.442-8.478,15.274-12.205,23.064c-5.786,12.09-11.25,23.51-16.214,28.076
			c-32.232,29.658-75.339,40.969-124.655,32.71c-9.987-1.673-20.603-5.721-31.841-10.006c-16.207-6.182-32.965-12.572-47.327-11.128
			c-1.415,0.143-4.114,0.588-7.532,1.15c-25.297,4.168-40.785,5.553-45.087,0.29c-0.736-0.9-1.807-2.84-0.713-5.717
			c4.771-12.552,61.069-48.127,71.041-53.428c0.735-0.391,1.808-0.916,3.092-1.543c3.425-1.673,11.236-5.488,15.205-8.724
			c-8.028,2.172-16.861,6.173-24.671,9.71c-1.143,0.518-2.269,1.027-3.373,1.523c-22.517,10.111-39.777,19.957-54.318,30.985
			c-1.595,1.21-3.695,3.093-6.127,5.273c-7.212,6.466-16.187,14.514-23.171,15.216c-15.148,1.528-28.976-0.686-43.613-3.026
			c-5.573-0.892-11.337-1.813-17.159-2.506c-6.315-0.751-12.494-1.348-18.47-1.925c-14.336-1.384-27.876-2.69-42.658-5.938
			c-0.001,0-0.001,0-0.001,0c-1.344-0.296-2.765-0.303-4.056-0.033c0.012,2.712,0.583,8.892,0.82,11.465
			c0.163,1.762,0.249,2.703,0.268,3.153c0.065,1.581-0.113,4.144-0.34,7.389c-0.44,6.292-1.177,16.824,0.438,20.422
			c3.085,6.869,18.142,7.271,28.104,7.538c3.344,0.09,6.231,0.167,8.275,0.465c30.498,4.44,64.787-0.108,97.948-4.51
			c11.305-1.5,21.982-2.917,32.38-3.964c1.655-0.167,3.524-0.372,5.56-0.596C214.355,302.994,226.223,301.688,237.599,301.688z"/>
		<path fill="#231F20" d="M465.559,157.058c-0.296,0-0.596-0.053-0.889-0.164l-9.818-3.733c-0.62-0.235-1.121-0.708-1.393-1.313
			s-0.292-1.293-0.057-1.913l0.679-1.785c0.491-1.291,1.937-1.938,3.226-1.448c1.101,0.419,1.733,1.53,1.593,2.648l7.548,2.87
			c1.29,0.491,1.938,1.935,1.448,3.226C467.516,156.444,466.567,157.058,465.559,157.058z"/>
		<path fill="#231F20" d="M495.651,349.353c-0.675,0-1.348-0.271-1.841-0.807l-1.446-1.571c-0.366-0.398-0.594-0.904-0.647-1.443
			l-0.429-4.248c-0.139-1.374,0.862-2.601,2.235-2.739c1.385-0.137,2.601,0.862,2.739,2.235l0.346,3.422l0.882,0.958
			c0.935,1.017,0.869,2.598-0.146,3.533C496.863,349.134,496.256,349.353,495.651,349.353z"/>
		<path fill="#231F20" d="M504.398,146.28c-0.296,0-0.596-0.053-0.888-0.164c-1.686-0.641-2.646-1.086-3.218-1.352
			c-0.159-0.074-0.28-0.134-0.386-0.179c-0.157,0.012-0.437,0.043-0.708,0.074c-0.306,0.035-0.678,0.077-1.139,0.123
			c-1.365,0.138-2.6-0.863-2.737-2.237c-0.139-1.373,0.863-2.6,2.237-2.737c0.436-0.044,0.786-0.084,1.075-0.116
			c1.751-0.201,2.227-0.176,3.763,0.537c0.545,0.253,1.37,0.636,2.888,1.213c1.291,0.49,1.939,1.935,1.449,3.225
			C506.355,145.666,505.406,146.28,504.398,146.28z"/>
		<path fill="#231F20" d="M468.477,326.761c-0.296,0-0.596-0.053-0.889-0.164l-1.497-0.569l-3.333-0.396l-1.853,0.187
			c-0.385,0.04-0.776-0.013-1.139-0.15l-1.784-0.679c-1.291-0.491-1.938-1.936-1.448-3.226c0.491-1.291,1.939-1.937,3.226-1.448
			l1.232,0.469l1.538-0.154c0.181-0.019,0.364-0.017,0.545,0.005l3.911,0.465c0.203,0.024,0.402,0.073,0.594,0.146l1.785,0.679
			c1.29,0.491,1.938,1.935,1.448,3.226C470.434,326.147,469.485,326.761,468.477,326.761z"/>
		<path fill="#231F20" d="M306.53,300.138c-1.035,0-2.185-0.444-3.509-1.104c-3.679-1.832-18.177-11.3-18.961-14.726
			c-3.068-13.431,30.72-26.452,31.067-26.556c1.265-0.379,2.695,0.271,3.154,1.506c0.378,1.015,0.341,2.442-1.98,3.484l0,0
			c-3.216,1.444-2.64,8.116-2.082,14.568c0.768,8.88,1.638,18.945-6.414,22.562C307.398,300.056,306.975,300.138,306.53,300.138z
			 M306.67,295.15L306.67,295.15L306.67,295.15z M288.88,282.883c1.946,2.389,14.012,11.009,17.402,12.16
			c3.925-2.275,3.704-8.647,2.956-17.301c-0.359-4.155-0.725-8.382-0.154-11.916C300.425,270.15,288.218,277.625,288.88,282.883z
			 M288.743,282.702 M315.277,260.463h0.01H315.277z"/>
		<path fill="#231F20" d="M522.834,397.294c-9.768,0-19.431-2.656-25.952-6.463c-5.471-3.194-7.912-10.566-8.501-17.02
			c-0.573,1.256-1.048,2.26-1.475,2.939c-5.049,8.041-18.468,12.823-29.113,13.391c-9.568,0.506-17.087-2.06-21.163-7.235
			c-5.515-7.004-1.538-33.075,2.586-39.642c0.854-1.361,2.354-2.506,4.007-3.437c-8.081-1.887-14.012-6.234-16.72-12.264
			c-5.378-11.976-1.773-23.74,10.149-33.127c8.336-6.564,14.433-2.956,18.885-0.32c2.63,1.557,4.917,2.909,7.396,2.48
			c1.138-1.393,2.466-7.676,3.191-11.106c1.053-4.982,1.755-8.116,2.863-9.709c6.54-9.395,18.526-10.532,28.158-11.447
			c0.743-0.07,1.477-0.14,2.195-0.212c9.727-0.992,18.864,8.042,21.767,16.963c1.22,3.751,1.305,7.258,0.337,10.25
			c4.065-1.044,8.201-2.027,12.361-2.771c16.423-2.946,33.181,9.915,39.285,23.512c5.521,12.292-7.518,28.327-15.726,34.181
			c-2.318,1.654-5.633,1.935-9.007,1.576c7.211,8.341,9.783,17.128,7.858,26.717c-1.764,8.785-7.186,15.444-15.679,19.259
			C535.093,396.254,528.942,397.294,522.834,397.294z M491.35,361.904c0.667,0,1.3,0.22,1.815,0.649
			c1.602,1.335,1.1,3.385,0.518,5.758c-0.188,0.767-0.445,1.815-0.447,2.229c-0.027,5.943,1.891,13.476,6.167,15.972
			c9.521,5.559,26.457,8.406,39.088,2.735c7.057-3.17,11.371-8.446,12.824-15.683c1.929-9.607-1.482-18.047-10.735-26.561
			c-0.82-0.755-3.057-1.884-4.659-2.581c-0.216-0.09-0.4-0.168-0.55-0.232c-1.259-0.544-1.845-2.001-1.313-3.265
			c0.531-1.265,1.986-1.863,3.252-1.344c0.121,0.05,0.319,0.132,0.574,0.242c5.401,2.234,13.784,4.354,16.579,2.361
			c7.249-5.171,18.15-18.97,14.067-28.062c-5.358-11.934-20.241-23.071-33.844-20.639c-5.942,1.063-11.931,2.656-17.723,4.197
			c-0.111,0.029-0.224,0.06-0.336,0.09c-0.315,0.22-0.645,0.43-0.986,0.63c0,0-0.001,0-0.002,0.001
			c-1.139,0.664-3.259,0.616-4.276-0.097c-0.799-0.559-1.218-1.559-1.046-2.518c0.178-0.987,0.914-1.764,1.922-2.027
			c0.717-0.188,1.434-0.378,2.151-0.568c3.652-3.079,2.848-7.839,1.962-10.562c-2.265-6.96-9.592-14.234-16.511-13.535
			c-0.729,0.073-1.471,0.144-2.224,0.215c-9.052,0.86-19.312,1.834-24.527,9.327c-0.589,0.854-1.448,4.918-2.075,7.886
			c-1.84,8.705-3.146,14.082-6.674,14.888c-4.542,1.036-8.161-1.103-11.354-2.994c-4.41-2.612-7.597-4.5-13.243-0.054
			c-7.036,5.539-14.253,14.746-8.683,27.15c2.805,6.244,9.684,8.631,13.534,9.498c2.508,0.563,7.342,1.786,7.546,1.838
			c1.108,0.281,1.885,1.278,1.886,2.421c0.001,1.144-0.774,2.143-1.882,2.426c-2.902,0.741-7.675,2.597-8.697,4.226
			c-3.813,6.072-6.41,29.422-2.893,33.889c2.997,3.805,9.181,5.754,16.969,5.336c10.737-0.572,21.547-5.325,25.146-11.057
			c0.326-0.52,0.914-1.812,1.481-3.062c2.207-4.854,3.699-7.869,5.809-8.816C490.424,362.006,490.895,361.904,491.35,361.904z
			 M513.513,298.597c-0.002,0.001-0.004,0.001-0.007,0.002C513.51,298.598,513.512,298.598,513.513,298.597z M514.382,296.244h0.01
			H514.382z"/>
		<path fill="#231F20" d="M362.517,272.725c-4.294,0.001-9.742-1.886-16.713-5.741c-5.885-3.254-7.313-15.513-6.446-23.179
			c0.212-1.876,0.544-3.586,0.99-5.116c-7.52-0.837-14.23-5.016-17.51-11.328c-3.638-7.003-2.11-14.76,4.192-21.282
			c7.112-7.362,13.783-11.866,20.393-13.769c1.591-0.455,3.187,0.059,4.768,1.117c-0.708-6.284,0.897-12.387,4.768-17.75
			c6.383-8.844,18.339-14.511,28.437-13.489c6.311,0.644,11.067,3.85,13.393,9.028c2.539,5.65,2.278,14.152,1.33,21.432
			c4.029-2.272,10.589-5.606,17.395-4.798c4.475,0.531,8.664,3.205,11.798,7.529c3.488,4.812,5.026,10.929,4.016,15.964
			c-2.847,14.176-12.287,17.291-21.911,19.558c0.378,0.526,0.786,1.052,1.035,1.373c0.692,0.893,1.035,1.344,1.256,1.834
			c0.527,1.175,1.076,2.283,1.608,3.354c1.6,3.227,3.11,6.274,3.774,10.495c1.135,7.229,0.034,13.251-3.183,17.418
			c-2.705,3.506-6.738,5.551-11.985,6.079c-6.68,0.681-21.798-3.154-25.403-11.181c-1.17-2.604-1.579-5.132-1.632-7.348
			c-0.648,1.672-1.149,3.588-1.663,5.549c-1.366,5.22-2.915,11.137-8.145,13.377C365.723,272.432,364.21,272.725,362.517,272.725z
			 M345.626,238.723c-0.6,1.539-1.053,3.463-1.3,5.644c-0.963,8.526,1.305,16.808,3.898,18.242
			c8.032,4.442,13.714,6.008,16.885,4.646c2.98-1.276,4.096-5.536,5.276-10.047c1.403-5.359,2.993-11.434,8.443-13.881
			c0.978-0.438,2.033-0.321,2.828,0.31c1.362,1.082,1.059,2.635,0.765,4.137c-0.429,2.188-1.226,6.261,0.656,10.451
			c2.24,4.986,14.496,8.845,20.343,8.255c3.825-0.385,6.694-1.784,8.527-4.159c2.977-3.856,2.84-9.518,2.201-13.587
			c-0.545-3.463-1.828-6.052-3.315-9.051c-0.538-1.086-1.095-2.209-1.648-3.436c-0.119-0.179-0.444-0.597-0.686-0.908
			c-1.742-2.245-3.544-4.566-2.754-6.778c0.369-1.031,1.229-1.77,2.357-2.026c11.427-2.611,18.006-4.651,20.32-16.176
			c0.745-3.711-0.466-8.327-3.161-12.045c-2.306-3.181-5.268-5.134-8.34-5.499c-5.837-0.691-11.847,2.75-15.436,4.808
			c-2.616,1.5-4.192,2.406-5.823,1.268c-0.898-0.63-1.315-1.702-1.114-2.87c1.77-10.273,1.655-18.354-0.322-22.755
			c-2.004-4.462-6.185-5.781-9.339-6.103c-8.302-0.852-18.56,4.074-23.875,11.44c-3.226,4.47-6.158,11.827-1.815,21.497
			c1.001,2.229-0.037,3.316-0.745,3.767c-1.915,1.217-3.285-0.375-4.496-1.78c-3.232-3.753-4.669-4.767-5.308-4.926
			c-5.696,1.682-11.594,5.737-18.022,12.393c-4.783,4.95-5.974,10.455-3.351,15.503c2.691,5.181,8.757,8.543,15.256,8.769
			c1.291-1.91,2.917-3.181,4.832-3.731c0.054-0.015,3.781-0.94,5.761,0.412c0.767,0.523,1.238,1.308,1.327,2.208
			c0.211,2.096-0.896,4.81-7.368,5.823C346.598,238.613,346.111,238.675,345.626,238.723z M409.144,236.156
			c0.002,0.004,0.004,0.009,0.006,0.014C409.148,236.165,409.146,236.16,409.144,236.156z M399.477,196.867c0,0.001,0,0.001,0,0.002
			c0,0,0,0,0,0.001C399.477,196.869,399.477,196.868,399.477,196.867z M397.014,196.445h0.01H397.014z"/>
		<path fill="#231F20" d="M382.51,373.474c-0.228,0-0.456-0.031-0.679-0.094c-0.684-0.193-1.252-0.667-1.565-1.304
			c-0.193-0.395-4.727-9.755-3.449-18.525c0.086-0.592,0.169-1.908,0.265-3.433c0.668-10.604,1.518-16.353,4.313-18.347
			c2.877-2.051,5.438-1.684,7.08-1.015c7.632,3.111,10.927,19.059,10.955,19.218c2.104,11.764-14.858,22.653-15.582,23.111
			C383.443,373.342,382.978,373.474,382.51,373.474z M385.857,335.232c-0.41,0-0.912,0.148-1.561,0.61
			c-1.402,1.505-2.021,11.354-2.226,14.59c-0.111,1.769-0.191,3.046-0.308,3.841c-0.684,4.699,0.757,9.823,1.867,12.871
			c4.785-3.606,11.928-10.412,10.876-16.288c-0.802-4.48-4.324-14.002-7.921-15.469
			C386.375,335.301,386.138,335.232,385.857,335.232z"/>
	</g>
</g>
</svg>
